<svg width="32" height="10" viewBox="0 0 32 10" fill="none" xmlns="http://www.w3.org/2000/svg">
<g clip-path="url(#clip0)">
<path d="M3.13752 2.56707C2.33292 3.37167 1.52833 4.17627 0.723728 4.98086C0.723728 4.17627 0.608786 3.86975 1.1835 3.29504C1.91147 2.56707 2.71607 1.87741 3.40572 1.11113C3.63561 0.842931 4.01875 0.229904 3.29078 0.344847C3.02258 0.421475 2.75438 0.804617 2.60112 0.957874C1.94978 1.5709 1.33675 2.18393 0.723728 2.79695C0.723728 2.14561 0.915299 1.18776 0.723728 0.613046C0.455529 -0.191552 0.0723871 0.498104 0.0723871 0.957874C-0.00424123 2.68201 0.0723871 4.40615 0.0723871 6.1686C0.0723871 7.04983 0.0723871 7.93105 0.0723871 8.77397C0.0723871 9.04217 -0.0425554 9.80845 0.225644 9.96171C0.915299 10.3832 0.723728 8.50577 0.723728 8.27588C0.723728 7.66286 0.493843 6.51343 0.723728 5.93872C0.953613 5.40232 1.91147 4.75098 2.29461 4.36784C2.63944 4.02301 3.06089 3.67818 3.36741 3.29504C3.44403 3.21841 3.55898 3.14178 3.59729 3.06515C3.75055 2.79695 3.55898 2.18393 3.13752 2.56707Z" fill="#F6C866"/>
<path d="M11.2219 4.86588C11.605 4.0996 11.9882 3.37163 12.3713 2.60535C12.6395 2.10726 12.8694 1.60918 13.1376 1.1111C13.2142 0.957839 13.5207 0.574697 13.4824 0.344812C13.2525 -0.804613 12.1797 1.53255 12.1031 1.68581C11.6816 2.49041 11.2602 3.33332 10.8387 4.13792C10.2257 2.95018 9.72762 1.41761 8.92302 0.383126C8.46325 -0.191586 8.15674 0.268184 8.38662 0.804582C8.73145 1.57087 9.15291 2.29884 9.53605 3.0268C9.76593 3.48657 10.4173 4.32949 10.4556 4.82757C10.4939 5.1724 9.99582 5.74711 9.84256 6.05362C9.42111 6.85822 8.99965 7.66282 8.61651 8.46742C8.50157 8.6973 7.88854 10.1532 8.76976 9.54021C9.22953 9.2337 9.53605 8.08428 9.80425 7.58619C10.1491 6.89654 10.4939 6.24519 10.8387 5.55554C11.2602 6.36014 11.6433 7.12642 12.0648 7.93102C12.2947 8.35248 12.4862 8.85056 12.7544 9.2337C12.946 9.5019 13.3675 9.92336 13.4824 9.31033C13.5207 9.08044 13.2142 8.73562 13.1376 8.54405C12.9077 8.08428 12.6395 7.58619 12.4096 7.12642C12.0265 6.43677 11.605 5.63217 11.2219 4.86588Z" fill="#F6C866"/>
<path d="M19.9191 9.61686C19.4594 9.61686 18.7314 8.58238 18.4632 8.31418C18.0417 7.89273 17.2371 7.35633 17.0073 6.85824C16.7774 6.36016 17.0839 6.2069 17.5053 6.39847C17.7352 6.51342 17.9651 6.85824 18.1184 7.0115C18.6165 7.50958 19.0762 7.96935 19.5743 8.46744C19.5743 7.16476 19.5743 5.86207 19.5743 4.59771C19.5743 3.71648 19.5743 2.79694 19.5743 1.91571C19.5743 1.49426 19.4594 0.804603 19.5743 0.383147C19.8425 -0.383137 20.3023 0.268204 20.6471 0.574718C21.2218 1.14943 21.9115 1.72414 22.4096 2.33717C22.6011 2.56705 23.0226 3.06514 22.3712 3.10345C22.1414 3.10345 21.9115 2.79694 21.7965 2.64368C21.2601 2.10728 20.7621 1.6092 20.2257 1.0728C20.2257 2.52874 20.2257 3.98468 20.2257 5.44062C20.2257 5.97702 20.5705 9.61686 19.9191 9.61686Z" fill="#F6C866"/>
<path d="M31.4133 -2.75075e-05C30.8769 -0.229913 29.3444 1.76242 28.9612 2.14557C28.4248 1.60917 27.8884 1.07277 27.352 0.536371C27.0072 0.191543 26.4708 -0.383169 26.2792 0.421428C26.1643 0.996141 26.2792 1.6858 26.2792 2.26051C26.2792 3.25668 26.2792 4.25285 26.2792 5.24901C26.2792 6.16856 26.2792 7.0881 26.2792 8.04595C26.2792 8.39078 26.1643 8.96549 26.2792 9.272C26.4325 9.73177 26.8156 9.65515 26.9306 9.23369C26.9689 9.08043 26.9306 8.85055 26.9306 8.7356C26.9306 7.85438 26.9306 7.01147 26.9306 6.13024C26.9306 4.44442 26.9306 2.75859 26.9306 1.11108C27.2371 1.4176 27.5436 1.72411 27.8884 2.06894C28.08 2.26051 28.5781 2.98848 28.9229 2.98848C29.2677 2.98848 29.6892 2.33714 29.9191 2.14557C30.3022 1.80074 30.6087 1.45591 30.9536 1.1494C30.9536 3.75476 30.8769 6.32181 30.9536 8.92718C30.9536 9.31032 31.2218 10.1149 31.6049 9.42526C31.7198 9.19538 31.6432 8.73561 31.6432 8.50572C31.6432 6.93484 31.6432 5.32564 31.6432 3.75476C31.6432 2.95016 31.6432 2.10725 31.6432 1.30265C31.6432 0.957827 31.7582 0.153229 31.4133 -2.75075e-05C31.2984 -0.0383417 31.5283 0.0766008 31.4133 -2.75075e-05Z" fill="#F6C866"/>
</g>
<defs>
<clipPath id="clip0">
<rect width="31.6475" height="10" fill="white" transform="translate(0.0340576)"/>
</clipPath>
</defs>
</svg>
